<mxfile host="app.diagrams.net" agent="Mozilla/5.0 (Windows NT 10.0; Win64; x64) AppleWebKit/537.36 (KHTML, like Gecko) Chrome/129.0.0.0 Safari/537.36" version="24.7.17">
  <diagram id="prtHgNgQTEPvFCAcTncT" name="Page-1">
    <mxGraphModel dx="1050" dy="522" grid="1" gridSize="10" guides="1" tooltips="1" connect="1" arrows="1" fold="1" page="1" pageScale="1" pageWidth="827" pageHeight="1169" math="0" shadow="0">
      <root>
        <mxCell id="0" />
        <mxCell id="1" parent="0" />
        <mxCell id="dNxyNK7c78bLwvsdeMH5-11" value="&lt;font style=&quot;font-size: 11px;&quot;&gt;&lt;span style=&quot;text-wrap: wrap;&quot;&gt;Bus&amp;nbsp;&lt;/span&gt;&lt;font style=&quot;text-wrap: wrap; font-size: 11px;&quot; face=&quot;-apple-system, BlinkMacSystemFont, Malgun Gothic, 맑은 고딕, helvetica, Apple SD Gothic Neo, helvetica, 나눔바른고딕 옛한글, NanumBarunGothic YetHangul, sans-serif&quot;&gt;&lt;span style=&quot;letter-spacing: -0.3px;&quot;&gt;Reservation System&lt;/span&gt;&lt;/font&gt;&lt;/font&gt;" style="swimlane;html=1;startSize=20;horizontal=1;containerType=tree;glass=0;fontSize=12;swimlaneFillColor=#000000;align=center;swimlaneLine=1;labelBackgroundColor=none;fontColor=default;whiteSpace=wrap;" parent="1" vertex="1">
          <mxGeometry x="10" y="10" width="700" height="510" as="geometry">
            <mxRectangle x="10" y="10" width="150" height="30" as="alternateBounds" />
          </mxGeometry>
        </mxCell>
        <mxCell id="zmxE-XWa9lRK3HXSa-9u-1" value="&lt;div style=&quot;text-align: left;&quot;&gt;&lt;span style=&quot;background-color: initial;&quot;&gt;Bus &lt;/span&gt;&lt;font style=&quot;font-size: 11px;&quot; face=&quot;-apple-system, BlinkMacSystemFont, Malgun Gothic, 맑은 고딕, helvetica, Apple SD Gothic Neo, helvetica, 나눔바른고딕 옛한글, NanumBarunGothic YetHangul, sans-serif&quot;&gt;&lt;span style=&quot;letter-spacing: -0.3px; background-color: rgb(255, 255, 255);&quot;&gt;Reservation&amp;nbsp;&lt;/span&gt;&lt;/font&gt;&lt;span style=&quot;background-color: initial;&quot;&gt;Project&lt;/span&gt;&lt;/div&gt;" style="rounded=0;whiteSpace=wrap;html=1;fontStyle=1;strokeColor=none;fontSize=11;" vertex="1" parent="dNxyNK7c78bLwvsdeMH5-11">
          <mxGeometry x="285" y="30" width="130" height="30" as="geometry" />
        </mxCell>
        <mxCell id="zmxE-XWa9lRK3HXSa-9u-2" value="&lt;div style=&quot;text-align: left;&quot;&gt;승차권 예매&lt;/div&gt;" style="rounded=0;whiteSpace=wrap;html=1;fontStyle=1;strokeColor=none;" vertex="1" parent="dNxyNK7c78bLwvsdeMH5-11">
          <mxGeometry x="10" y="100" width="130" height="20" as="geometry" />
        </mxCell>
        <mxCell id="zmxE-XWa9lRK3HXSa-9u-5" value="&lt;div style=&quot;text-align: left;&quot;&gt;운행정보&lt;/div&gt;" style="rounded=0;whiteSpace=wrap;html=1;fontStyle=1;strokeColor=none;" vertex="1" parent="dNxyNK7c78bLwvsdeMH5-11">
          <mxGeometry x="285" y="100" width="130" height="20" as="geometry" />
        </mxCell>
        <mxCell id="zmxE-XWa9lRK3HXSa-9u-6" value="&lt;div style=&quot;text-align: left;&quot;&gt;이용안내&lt;/div&gt;" style="rounded=0;whiteSpace=wrap;html=1;fontStyle=1;strokeColor=none;" vertex="1" parent="dNxyNK7c78bLwvsdeMH5-11">
          <mxGeometry x="420" y="100" width="130" height="20" as="geometry" />
        </mxCell>
        <mxCell id="zmxE-XWa9lRK3HXSa-9u-7" value="&lt;div style=&quot;text-align: left;&quot;&gt;공지사항&lt;/div&gt;" style="rounded=0;whiteSpace=wrap;html=1;fontStyle=1;strokeColor=none;" vertex="1" parent="dNxyNK7c78bLwvsdeMH5-11">
          <mxGeometry x="560" y="100" width="130" height="20" as="geometry" />
        </mxCell>
        <mxCell id="zmxE-XWa9lRK3HXSa-9u-16" value="" style="endArrow=none;html=1;rounded=0;strokeColor=#FFFFFF;exitX=0.5;exitY=0;exitDx=0;exitDy=0;entryX=0.5;entryY=0;entryDx=0;entryDy=0;" edge="1" parent="dNxyNK7c78bLwvsdeMH5-11" source="zmxE-XWa9lRK3HXSa-9u-2" target="zmxE-XWa9lRK3HXSa-9u-7">
          <mxGeometry width="50" height="50" relative="1" as="geometry">
            <mxPoint x="70" y="80" as="sourcePoint" />
            <mxPoint x="910" y="80" as="targetPoint" />
            <Array as="points">
              <mxPoint x="75" y="80" />
              <mxPoint x="625" y="80" />
            </Array>
          </mxGeometry>
        </mxCell>
        <mxCell id="zmxE-XWa9lRK3HXSa-9u-20" value="" style="endArrow=none;html=1;rounded=0;entryX=0.5;entryY=1;entryDx=0;entryDy=0;exitX=0.5;exitY=0;exitDx=0;exitDy=0;strokeColor=#FFFFFF;" edge="1" parent="dNxyNK7c78bLwvsdeMH5-11" source="zmxE-XWa9lRK3HXSa-9u-5" target="zmxE-XWa9lRK3HXSa-9u-1">
          <mxGeometry width="50" height="50" relative="1" as="geometry">
            <mxPoint x="430" y="260" as="sourcePoint" />
            <mxPoint x="480" y="210" as="targetPoint" />
          </mxGeometry>
        </mxCell>
        <mxCell id="zmxE-XWa9lRK3HXSa-9u-22" value="&lt;div style=&quot;text-align: left;&quot;&gt;조회/변경/취소&lt;/div&gt;" style="rounded=0;whiteSpace=wrap;html=1;fontStyle=1;strokeColor=none;" vertex="1" parent="dNxyNK7c78bLwvsdeMH5-11">
          <mxGeometry x="150" y="100" width="130" height="20" as="geometry" />
        </mxCell>
        <mxCell id="zmxE-XWa9lRK3HXSa-9u-24" value="" style="endArrow=none;html=1;rounded=0;strokeColor=#FFFFFF;exitX=0.5;exitY=0;exitDx=0;exitDy=0;" edge="1" parent="dNxyNK7c78bLwvsdeMH5-11" source="zmxE-XWa9lRK3HXSa-9u-22">
          <mxGeometry width="50" height="50" relative="1" as="geometry">
            <mxPoint x="220" y="55" as="sourcePoint" />
            <mxPoint x="215" y="80" as="targetPoint" />
          </mxGeometry>
        </mxCell>
        <mxCell id="zmxE-XWa9lRK3HXSa-9u-29" value="예약하기" style="rounded=0;whiteSpace=wrap;html=1;fontStyle=1;strokeColor=#FFFFFF;fillColor=#000000;fontColor=#FFFFFF;" vertex="1" parent="dNxyNK7c78bLwvsdeMH5-11">
          <mxGeometry x="10" y="130" width="130" height="20" as="geometry" />
        </mxCell>
        <mxCell id="zmxE-XWa9lRK3HXSa-9u-30" value="좌석선택" style="rounded=0;whiteSpace=wrap;html=1;fontStyle=1;strokeColor=#FFFFFF;fillColor=#000000;fontColor=#FFFFFF;" vertex="1" parent="dNxyNK7c78bLwvsdeMH5-11">
          <mxGeometry x="10" y="160" width="130" height="20" as="geometry" />
        </mxCell>
        <mxCell id="zmxE-XWa9lRK3HXSa-9u-31" value="예약완료" style="rounded=0;whiteSpace=wrap;html=1;fontStyle=1;strokeColor=#FFFFFF;fillColor=#000000;fontColor=#FFFFFF;" vertex="1" parent="dNxyNK7c78bLwvsdeMH5-11">
          <mxGeometry x="10" y="220" width="130" height="20" as="geometry" />
        </mxCell>
        <mxCell id="zmxE-XWa9lRK3HXSa-9u-32" value="조회" style="rounded=0;whiteSpace=wrap;html=1;fontStyle=1;strokeColor=#FFFFFF;fillColor=#000000;fontColor=#FFFFFF;" vertex="1" parent="dNxyNK7c78bLwvsdeMH5-11">
          <mxGeometry x="150" y="130" width="130" height="20" as="geometry" />
        </mxCell>
        <mxCell id="zmxE-XWa9lRK3HXSa-9u-33" value="변경" style="rounded=0;whiteSpace=wrap;html=1;fontStyle=1;strokeColor=#FFFFFF;fillColor=#000000;fontColor=#FFFFFF;" vertex="1" parent="dNxyNK7c78bLwvsdeMH5-11">
          <mxGeometry x="150" y="160" width="130" height="20" as="geometry" />
        </mxCell>
        <mxCell id="zmxE-XWa9lRK3HXSa-9u-36" value="취소" style="rounded=0;whiteSpace=wrap;html=1;fontStyle=1;strokeColor=#FFFFFF;fillColor=#000000;fontColor=#FFFFFF;" vertex="1" parent="dNxyNK7c78bLwvsdeMH5-11">
          <mxGeometry x="150" y="190" width="130" height="20" as="geometry" />
        </mxCell>
        <mxCell id="zmxE-XWa9lRK3HXSa-9u-37" value="운행 시간표" style="rounded=0;whiteSpace=wrap;html=1;fontStyle=1;strokeColor=#FFFFFF;fillColor=#000000;fontColor=#FFFFFF;" vertex="1" parent="dNxyNK7c78bLwvsdeMH5-11">
          <mxGeometry x="285" y="130" width="130" height="20" as="geometry" />
        </mxCell>
        <mxCell id="zmxE-XWa9lRK3HXSa-9u-38" value="위치확인" style="rounded=0;whiteSpace=wrap;html=1;fontStyle=1;strokeColor=#FFFFFF;fillColor=#000000;fontColor=#FFFFFF;" vertex="1" parent="dNxyNK7c78bLwvsdeMH5-11">
          <mxGeometry x="285" y="160" width="130" height="20" as="geometry" />
        </mxCell>
        <mxCell id="zmxE-XWa9lRK3HXSa-9u-39" value="예약 방법" style="rounded=0;whiteSpace=wrap;html=1;fontStyle=1;strokeColor=#FFFFFF;fillColor=#000000;fontColor=#FFFFFF;" vertex="1" parent="dNxyNK7c78bLwvsdeMH5-11">
          <mxGeometry x="420" y="130" width="130" height="20" as="geometry" />
        </mxCell>
        <mxCell id="zmxE-XWa9lRK3HXSa-9u-40" value="조회 방법" style="rounded=0;whiteSpace=wrap;html=1;fontStyle=1;strokeColor=#FFFFFF;fillColor=#000000;fontColor=#FFFFFF;" vertex="1" parent="dNxyNK7c78bLwvsdeMH5-11">
          <mxGeometry x="420" y="160" width="130" height="20" as="geometry" />
        </mxCell>
        <mxCell id="zmxE-XWa9lRK3HXSa-9u-41" value="업데이트" style="rounded=0;whiteSpace=wrap;html=1;fontStyle=1;strokeColor=#FFFFFF;fillColor=#000000;fontColor=#FFFFFF;" vertex="1" parent="dNxyNK7c78bLwvsdeMH5-11">
          <mxGeometry x="560" y="130" width="130" height="20" as="geometry" />
        </mxCell>
        <mxCell id="zmxE-XWa9lRK3HXSa-9u-42" value="공지사항" style="rounded=0;whiteSpace=wrap;html=1;fontStyle=1;strokeColor=#FFFFFF;fillColor=#000000;fontColor=#FFFFFF;" vertex="1" parent="dNxyNK7c78bLwvsdeMH5-11">
          <mxGeometry x="560" y="160" width="130" height="20" as="geometry" />
        </mxCell>
        <mxCell id="zmxE-XWa9lRK3HXSa-9u-43" value="포인트 결제" style="rounded=0;whiteSpace=wrap;html=1;fontStyle=1;strokeColor=#FFFFFF;fillColor=#000000;fontColor=#FFFFFF;" vertex="1" parent="dNxyNK7c78bLwvsdeMH5-11">
          <mxGeometry x="10" y="190" width="130" height="20" as="geometry" />
        </mxCell>
        <mxCell id="zmxE-XWa9lRK3HXSa-9u-44" value="결제" style="rounded=0;whiteSpace=wrap;html=1;fontStyle=1;strokeColor=#FFFFFF;fillColor=#000000;fontColor=#FFFFFF;" vertex="1" parent="dNxyNK7c78bLwvsdeMH5-11">
          <mxGeometry x="420" y="190" width="130" height="20" as="geometry" />
        </mxCell>
        <mxCell id="zmxE-XWa9lRK3HXSa-9u-45" value="Menu Structute" style="rounded=0;whiteSpace=wrap;html=1;fontStyle=1;fontColor=#FFFFFF;fillColor=none;strokeColor=none;fontSize=25;" vertex="1" parent="dNxyNK7c78bLwvsdeMH5-11">
          <mxGeometry y="20" width="190" height="40" as="geometry" />
        </mxCell>
        <mxCell id="zmxE-XWa9lRK3HXSa-9u-28" value="" style="endArrow=none;html=1;rounded=0;strokeColor=#FFFFFF;exitX=0.5;exitY=0;exitDx=0;exitDy=0;" edge="1" parent="1" source="zmxE-XWa9lRK3HXSa-9u-6">
          <mxGeometry width="50" height="50" relative="1" as="geometry">
            <mxPoint x="495" y="80" as="sourcePoint" />
            <mxPoint x="495" y="90" as="targetPoint" />
          </mxGeometry>
        </mxCell>
      </root>
    </mxGraphModel>
  </diagram>
</mxfile>
